<svg width="243" height="241" viewBox="0 0 243 241" fill="none" xmlns="http://www.w3.org/2000/svg">
<rect x="98.9855" y="3.46376" width="45.029" height="20.7826" fill="#FFCF5A"/>
<path d="M98.9855 24.2464H144.015" stroke="#AF9A63" stroke-width="3"/>
<rect x="98.9855" y="24.2464" width="45.029" height="38.1015" fill="white"/>
<path d="M64.707 55.4868C60.0818 55.1923 55.4465 55.8781 51.1048 57.4994C46.763 59.1207 42.8128 61.6408 39.5126 64.8948C36.2125 68.1487 33.6369 72.0631 31.9546 76.3815C30.2723 80.7 29.5212 85.3251 29.7504 89.954" stroke="#5C4A17" stroke-width="3"/>
<path d="M178.652 55.4868C183.277 55.1923 187.913 55.8781 192.254 57.4994C196.596 59.1207 200.546 61.6408 203.847 64.8948C207.147 68.1487 209.722 72.0631 211.405 76.3815C213.087 80.7 213.838 85.3251 213.609 89.954" stroke="#5C4A17" stroke-width="3"/>
<path d="M64.3478 41.6586C57.939 41.2451 51.5162 42.2082 45.5002 44.4848C39.4841 46.7614 34.0105 50.3002 29.4377 54.8694C24.8649 59.4387 21.2961 64.9353 18.965 70.9994C16.634 77.0634 15.5932 83.558 15.9109 90.058" stroke="#5C4A17" stroke-width="3"/>
<path d="M179.011 41.6586C185.42 41.2451 191.843 42.2082 197.859 44.4848C203.875 46.7614 209.349 50.3002 213.921 54.8694C218.494 59.4387 222.063 64.9353 224.394 70.9994C226.725 77.0634 227.766 83.558 227.448 90.058" stroke="#5C4A17" stroke-width="3"/>
<mask id="path-8-inside-1_7_2409" fill="white">
<rect x="95.5217" width="51.9565" height="65.8116" rx="2"/>
</mask>
<rect x="95.5217" width="51.9565" height="65.8116" rx="2" stroke="#554314" stroke-width="6" mask="url(#path-8-inside-1_7_2409)"/>
<rect x="109.377" y="31.1739" width="10.3913" height="10.3913" rx="1" fill="#503D06"/>
<rect x="123.232" y="31.1739" width="10.3913" height="10.3913" rx="1" fill="#503D06"/>
<rect x="109.377" y="45.029" width="10.3913" height="10.3913" rx="1" fill="#503D06"/>
<rect x="123.232" y="45.029" width="10.3913" height="10.3913" rx="1" fill="#503D06"/>
<path d="M50.4928 131.623H192.507C189.043 126.428 181.423 114.651 178.652 109.109C175.881 103.567 170.57 101.027 168.261 100.449H112.841H74.7391C69.1971 100.449 56.2657 121.232 50.4928 131.623Z" fill="#FFCF5A" stroke="#4C3800" stroke-width="3"/>
<path d="M33.1739 166.261C44.07 166.261 59.0669 166.261 67.7494 166.261C71.6154 166.261 74.7391 169.395 74.7391 173.261V190.507H33.1739" stroke="#4C3800" stroke-width="3"/>
<path d="M209.826 166.261C198.93 166.261 183.933 166.261 175.251 166.261C171.385 166.261 168.261 169.395 168.261 173.261V190.507H209.826" stroke="#4C3800" stroke-width="3"/>
<path d="M95.5217 171.688H93.7899L94.0371 173.403L96.0354 187.258L96.2209 188.543H97.5201H145.48H146.779L146.965 187.258L148.963 173.403L149.21 171.688H147.478H95.5217Z" stroke="#5C4A17" stroke-width="3"/>
<path d="M185.58 86.5942C189.736 89.3652 203.476 115.459 209.826 128.159C210.97 130.43 212.612 131.415 213.29 131.623H237.536C240.307 131.623 241 133.932 241 135.087V148.942C241 153.099 228.3 156.447 221.949 157.601V232.072C221.949 236.229 218.486 238.423 216.754 239H213.29H192.507C188.351 239 186.157 234.382 185.58 232.072V218.217H182.116H57.4203V228.609C57.4203 234.151 52.6276 237.845 50.2313 239H26.2464C19.3188 239 18.7415 232.448 19.3188 229.172V159.333L5.46377 152.406C2.69275 151.02 2 149.519 2 148.942V135.087C2 132.316 4.30918 131.623 5.46377 131.623H26.2464C29.0174 131.623 32.0193 127.005 33.1739 124.696C40.1014 113.15 54.6493 89.3652 57.4203 86.5942C60.1913 83.8232 63.1932 83.1304 64.3478 83.1304H178.652C179.229 83.1304 181.423 83.8232 185.58 86.5942Z" stroke="#4C3800" stroke-width="3"/>
<path d="M60.8841 218.217H47.029H43.5652" stroke="#4C3800" stroke-width="3"/>
<path d="M185.58 218.217H192.507H194.239H195.971H199.435" stroke="#4C3800" stroke-width="3"/>
</svg>
