<?xml version="1.0" standalone="no"?>
<!DOCTYPE svg PUBLIC "-//W3C//DTD SVG 20010904//EN"
 "http://www.w3.org/TR/2001/REC-SVG-20010904/DTD/svg10.dtd">
<svg version="1.0" xmlns="http://www.w3.org/2000/svg"
 width="1193.000000pt" height="324.000000pt" viewBox="0 0 1193.000000 324.000000"
 preserveAspectRatio="xMidYMid meet">
<metadata>
Created by potrace 1.16, written by Peter Selinger 2001-2019
</metadata>
<g transform="translate(0.000000,324.000000) scale(0.100000,-0.100000)"
fill="#009EF7" stroke="none">
<path d="M11010 3057 c0 -19 -50 -30 -255 -58 -82 -11 -175 -24 -205 -29 -30
-6 -89 -14 -130 -19 -147 -19 -378 -51 -471 -66 -111 -17 -377 -55 -434 -61
-79 -8 -149 -24 -157 -37 -6 -9 -8 -9 -8 1 0 6 -5 12 -11 12 -6 0 -8 -16 -4
-42 71 -518 67 -503 141 -539 37 -18 49 -19 106 -10 34 6 149 22 253 36 105
14 231 32 280 40 89 14 463 67 744 106 79 11 156 26 171 34 29 15 61 54 74 90
12 34 -63 546 -81 553 -7 2 -13 -3 -13 -11z m-535 -168 c-8 -37 14 -61 52 -57
43 5 43 -27 -1 -42 -19 -6 -40 -17 -46 -25 -29 -34 28 -133 70 -122 14 3 23 0
27 -9 9 -24 -7 -32 -74 -36 l-63 -4 -6 33 c-3 18 -7 54 -8 80 -1 47 -1 48 -33
47 -30 -2 -33 1 -33 27 0 24 4 29 25 29 24 0 25 2 19 43 -4 23 -7 46 -8 52 -1
10 63 24 77 17 5 -2 5 -17 2 -33z m455 -20 c0 -6 -5 -19 -10 -29 -7 -13 -6
-43 1 -95 10 -68 10 -78 -6 -95 -10 -11 -22 -20 -26 -20 -8 0 -19 59 -22 124
-1 22 -7 41 -13 43 -17 6 -65 -96 -58 -121 3 -15 -3 -29 -19 -44 l-24 -23 -19
72 c-19 73 -34 99 -59 99 -21 0 -25 -26 -14 -86 10 -52 9 -58 -12 -80 -12 -13
-25 -22 -27 -19 -9 9 -38 236 -32 240 4 2 26 7 49 11 41 7 44 5 92 -45 27 -28
49 -45 49 -38 0 23 39 96 57 106 24 14 93 14 93 0z m-594 -84 c4 -8 1 -22 -6
-30 -7 -8 -13 -47 -15 -87 -2 -61 -5 -74 -25 -90 -26 -21 -70 -24 -88 -5 -7 6
-18 12 -24 12 -21 0 -46 59 -53 126 l-6 67 41 4 42 4 -7 -31 c-12 -57 -6 -87
22 -116 15 -16 32 -29 37 -29 5 0 6 39 3 89 -5 79 -4 90 11 94 36 10 63 6 68
-8z m-265 -51 c19 -17 25 -45 12 -58 -4 -4 -6 -27 -4 -51 1 -25 0 -53 -4 -64
-8 -27 -52 -42 -115 -38 l-55 4 -7 39 c-10 59 -9 123 3 145 25 47 128 61 170
23z m-221 -27 c0 -13 -4 -27 -10 -33 -6 -6 -7 -31 -1 -69 39 -253 39 -266 -6
-283 -16 -6 -53 -12 -83 -14 l-55 -2 -9 37 c-5 20 -8 39 -5 41 2 2 21 7 42 11
34 7 39 5 44 -14 3 -12 13 -21 24 -21 17 0 19 8 19 60 l0 60 -42 2 c-24 1 -55
1 -70 0 -30 -2 -30 -4 -48 105 -16 93 2 118 96 132 99 14 104 14 104 -12z"/>
<path d="M3700 1695 l0 -605 140 0 140 0 0 175 c0 140 3 175 13 175 23 0 122
-112 150 -170 15 -31 30 -82 33 -117 l7 -63 143 0 143 0 -6 53 c-11 97 -79
222 -181 330 l-55 57 55 58 c104 110 165 222 184 341 l7 41 -145 0 -145 0 -7
-61 c-8 -83 -54 -173 -124 -243 -31 -31 -60 -56 -64 -56 -4 0 -8 155 -8 345
l0 345 -140 0 -140 0 0 -605z"/>
<path d="M4590 1695 l0 -605 140 0 140 0 2 318 3 317 45 3 c63 5 107 -6 130
-30 19 -21 20 -36 20 -315 l0 -293 139 0 c135 0 139 1 145 23 10 38 6 629 -5
677 -30 133 -124 180 -359 180 l-120 0 0 165 0 165 -140 0 -140 0 0 -605z"/>
<path d="M8091 2293 c1 -5 1 -79 0 -165 l-1 -158 -95 0 -95 0 0 -120 0 -120
95 0 95 0 1 -187 c1 -226 4 -256 24 -310 20 -51 80 -107 132 -123 21 -7 111
-15 201 -17 l162 -5 0 120 0 121 -43 6 c-24 4 -52 6 -63 5 -48 -5 -82 2 -102
20 -21 20 -22 29 -22 195 l0 175 115 0 115 0 0 120 0 120 -115 0 -115 0 0 165
0 165 -145 0 c-80 0 -144 -3 -144 -7z"/>
<path d="M8730 1695 l0 -605 140 0 140 0 0 605 0 605 -140 0 -140 0 0 -605z"/>
<path d="M1331 1923 c-52 -61 -116 -191 -136 -273 -11 -49 -15 -127 -15 -312
l0 -248 140 0 140 0 0 85 0 85 75 1 c41 1 82 2 90 2 8 0 20 -1 25 -2 6 0 10
-37 10 -86 l0 -85 146 0 146 0 -4 263 c-4 236 -7 269 -27 330 -26 80 -56 137
-118 225 l-44 62 -194 0 -193 0 -41 -47z m287 -274 c36 -72 60 -217 37 -225
-6 -3 -52 -4 -101 -2 l-89 3 3 55 c1 30 7 76 13 102 14 62 64 140 87 136 9 -2
32 -32 50 -69z"/>
<path d="M2070 1850 l0 -120 160 0 c102 0 160 -4 160 -10 0 -6 -72 -95 -160
-197 l-160 -188 0 -122 0 -123 304 0 304 0 6 33 c3 18 6 71 5 119 l-1 86 -35
7 c-20 3 -91 5 -159 4 -70 -1 -124 2 -123 7 0 7 104 137 144 180 15 16 98 113
140 163 l36 44 -2 100 c-1 55 -4 108 -6 118 -5 18 -22 19 -309 19 l-304 0 0
-120z"/>
<path d="M2800 1837 c0 -73 5 -160 11 -193 20 -112 121 -287 206 -360 l25 -21
1 -209 2 -209 140 0 140 0 3 203 2 202 51 63 c116 143 188 367 189 590 l0 67
-138 0 -139 0 -6 -162 c-9 -215 -28 -304 -82 -372 -14 -19 -15 -19 -35 -1 -50
45 -80 198 -80 406 l0 129 -145 0 -145 0 0 -133z"/>
<path d="M5624 1908 c-61 -82 -99 -160 -124 -250 -18 -64 -20 -102 -20 -320
l0 -248 145 0 145 0 0 84 0 85 95 3 95 3 0 -65 c0 -117 -9 -110 151 -110 l139
0 0 238 c0 165 -5 257 -14 304 -19 85 -71 196 -130 276 l-46 62 -195 0 -195 0
-46 -62z m276 -218 c33 -46 58 -127 62 -200 l3 -65 -99 -3 -99 -3 6 84 c6 86
15 115 54 180 28 45 45 47 73 7z"/>
<path d="M6575 1963 c-66 -15 -115 -37 -143 -66 -59 -61 -62 -83 -62 -463 l0
-344 139 0 140 0 3 295 c4 365 -9 338 168 344 l120 3 0 119 0 119 -172 -1
c-95 -1 -182 -3 -193 -6z"/>
<path d="M7072 1793 c4 -163 6 -184 31 -245 30 -79 85 -162 156 -240 l51 -56
0 -206 0 -206 140 0 140 0 0 205 0 205 39 43 c123 134 187 315 206 585 l7 92
-146 0 -146 0 0 -129 c0 -207 -30 -361 -80 -406 -23 -21 -35 -14 -61 37 -33
64 -49 161 -56 336 l-6 162 -140 0 -139 0 4 -177z"/>
<path d="M9302 1935 c-45 -50 -107 -161 -134 -235 -21 -61 -23 -84 -26 -337
l-3 -273 140 0 140 0 3 86 3 87 97 1 98 1 0 -87 0 -88 145 0 145 0 0 223 c0
339 -21 426 -143 590 l-51 67 -192 0 -192 0 -30 -35z m253 -241 c34 -46 57
-116 62 -196 l6 -78 -95 0 c-52 0 -97 2 -99 5 -3 2 -2 41 3 85 10 106 56 210
92 210 6 0 20 -12 31 -26z"/>
<path d="M10205 1956 c-68 -16 -104 -40 -140 -89 l-30 -42 -3 -367 -3 -368
140 0 141 0 0 285 c0 194 4 292 12 309 15 35 60 46 181 46 l97 0 0 120 0 120
-172 -1 c-99 0 -195 -6 -223 -13z"/>
</g>
</svg>
