<?xml version="1.0" standalone="no"?>
<!DOCTYPE svg PUBLIC "-//W3C//DTD SVG 20010904//EN"
 "http://www.w3.org/TR/2001/REC-SVG-20010904/DTD/svg10.dtd">
<svg version="1.0" xmlns="http://www.w3.org/2000/svg"
 width="512.000000pt" height="512.000000pt" viewBox="0 0 512.000000 512.000000"
 preserveAspectRatio="xMidYMid meet">
<metadata>
Created by potrace 1.16, written by Peter Selinger 2001-2019
</metadata>
<g transform="translate(0.000000,512.000000) scale(0.100000,-0.100000)"
fill="#fff" stroke="none">
<path d="M2440 4480 c-194 -25 -354 -132 -448 -302 -47 -83 -64 -165 -69 -335
l-6 -162 -308 -3 c-301 -3 -309 -4 -330 -25 -30 -30 -28 -6 -94 -1181 -9 -169
-10 -253 -3 -273 11 -32 42 -45 84 -35 23 6 465 392 656 572 139 132 267 185
447 185 184 0 314 -54 447 -186 135 -134 189 -275 182 -470 -5 -131 -26 -197
-98 -318 -28 -46 -50 -92 -50 -103 0 -41 50 -104 248 -315 96 -102 103 -100
357 130 22 20 78 70 125 111 47 41 87 77 90 80 3 3 46 42 97 88 92 83 118 126
95 155 -6 7 -23 337 -41 757 -17 410 -35 761 -39 780 -5 25 -14 36 -32 41 -14
4 -165 7 -337 8 l-312 1 -4 123 c-3 117 -3 117 -3 -21 1 -78 -2 -142 -5 -142
-15 0 -19 41 -19 203 0 151 -3 180 -23 238 -58 170 -179 291 -345 344 -29 10
-51 19 -49 21 5 6 107 -25 140 -42 15 -8 27 -12 27 -9 0 2 -22 16 -48 29 -91
46 -226 69 -332 56z m158 -244 c72 -20 145 -68 187 -126 61 -83 68 -110 73
-277 l4 -153 -352 0 -352 0 4 158 c3 141 6 162 27 202 52 99 118 158 214 191
63 22 124 23 195 5z"/>
<path d="M2235 2836 c-80 -23 -143 -53 -154 -75 -21 -37 -13 -79 22 -118 60
-69 282 -318 287 -323 3 -3 23 -25 44 -50 63 -72 187 -210 239 -267 55 -58 91
-72 134 -49 55 28 125 206 121 306 l-1 45 -4 -40 c-4 -42 -42 -169 -49 -162
-2 2 3 26 11 53 25 80 29 190 11 267 -22 94 -59 161 -127 233 -67 69 -131 107
-234 140 -38 12 -63 23 -55 23 31 2 136 -31 180 -55 35 -20 40 -21 20 -5 -14
11 -61 35 -105 52 -68 27 -96 33 -185 35 -70 3 -122 -1 -155 -10z"/>
<path d="M1914 2657 c-12 -7 -44 -32 -71 -57 -27 -25 -186 -167 -354 -317
-167 -149 -310 -282 -318 -294 -13 -22 -16 -56 -41 -479 -53 -896 -52 -872
-22 -902 l23 -23 1378 0 c1342 0 1379 1 1400 19 22 20 27 55 11 84 -10 19 -62
1150 -53 1165 3 5 -1 13 -8 18 -25 16 -76 9 -105 -13 -24 -19 -379 -332 -394
-348 -3 -3 -43 -39 -90 -80 -47 -41 -103 -91 -125 -111 -164 -149 -381 -339
-387 -339 -5 0 -8 10 -8 23 0 25 33 59 190 197 140 123 170 155 170 185 0 20
-34 64 -137 181 -76 85 -140 162 -141 170 -5 21 -48 35 -80 27 -34 -8 -69 -37
-304 -251 -44 -39 -65 -52 -89 -52 -17 0 -29 4 -27 8 2 5 48 48 103 97 55 50
102 92 105 95 3 3 40 35 82 73 123 108 145 63 -252 509 -188 210 -346 393
-351 405 -7 18 -16 23 -46 23 -21 -1 -48 -6 -59 -13z"/>
</g>
</svg>
