<?xml version="1.0" standalone="no"?>
<!DOCTYPE svg PUBLIC "-//W3C//DTD SVG 20010904//EN"
 "http://www.w3.org/TR/2001/REC-SVG-20010904/DTD/svg10.dtd">
<svg version="1.0" xmlns="http://www.w3.org/2000/svg"
 width="1280.000000pt" height="1280.000000pt" viewBox="0 0 1280.000000 1280.000000"
 preserveAspectRatio="xMidYMid meet">
<metadata>
Created by potrace 1.16, written by Peter Selinger 2001-2019
</metadata>
<g transform="translate(0.000000,1280.000000) scale(0.100000,-0.100000)"
fill="#186db6" stroke="none">
<path d="M6322 12219 c-533 -69 -977 -467 -1111 -995 -33 -131 -41 -257 -41
-644 l0 -370 -834 0 -835 0 -5 -52 c-6 -55 -22 -317 -56 -923 -17 -300 -52
-914 -90 -1580 -6 -99 -22 -362 -35 -585 -13 -223 -22 -406 -21 -407 1 -1 101
86 221 194 121 107 292 259 380 337 87 77 186 166 220 196 33 30 98 89 144
130 46 41 89 80 95 85 6 6 90 80 186 165 224 198 255 226 367 337 265 261 552
415 913 489 105 22 154 26 305 27 100 1 217 -5 262 -11 95 -15 296 -65 351
-87 20 -9 51 -21 67 -28 71 -28 236 -117 310 -166 649 -434 925 -1261 669
-2009 -58 -171 -162 -363 -265 -491 -29 -37 -47 -67 -42 -74 5 -9 242 -277
263 -297 3 -3 39 -43 80 -90 90 -102 77 -88 171 -191 42 -46 106 -119 143
-162 37 -42 70 -77 73 -77 3 0 64 53 137 117 72 65 149 134 171 153 22 19 64
58 95 85 74 68 301 270 420 375 102 89 461 411 470 420 6 6 254 223 257 225 3
1 0 56 -37 880 -11 242 -27 607 -35 810 -9 204 -22 514 -30 690 -17 358 -65
1470 -65 1498 0 16 -49 17 -890 17 l-890 0 0 399 c0 428 -8 525 -60 696 -30
100 -130 298 -192 380 -292 392 -764 596 -1236 534z m389 -304 c347 -73 639
-336 754 -680 47 -138 55 -236 55 -647 l0 -378 -1030 0 -1030 0 0 358 c0 364
8 492 35 594 91 349 366 637 699 733 160 47 354 54 517 20z"/>
<path d="M5950 8130 c-142 -24 -412 -123 -434 -159 -4 -6 80 -108 187 -228
324 -364 461 -518 467 -523 5 -5 119 -134 185 -209 17 -19 37 -42 45 -51 48
-52 114 -125 175 -195 65 -73 306 -344 379 -425 17 -19 67 -75 110 -123 l79
-88 23 28 c38 46 130 223 159 303 43 121 65 236 72 375 9 196 -21 358 -100
550 -23 55 -103 203 -116 215 -4 3 -20 23 -36 45 -54 73 -168 186 -247 245
-226 170 -473 251 -760 249 -78 -1 -163 -5 -188 -9z"/>
<path d="M5009 7617 c-133 -118 -275 -245 -293 -262 -6 -6 -96 -86 -201 -180
-104 -93 -192 -171 -195 -174 -3 -4 -43 -40 -90 -81 -47 -41 -87 -77 -90 -80
-3 -3 -66 -59 -140 -125 -74 -66 -137 -122 -140 -125 -3 -3 -43 -39 -90 -80
-47 -41 -107 -96 -135 -121 -27 -25 -113 -102 -190 -170 -77 -68 -151 -133
-163 -145 -26 -23 -26 -18 -107 -1464 -14 -250 -32 -561 -40 -690 -8 -129 -22
-365 -30 -525 -8 -159 -20 -353 -25 -430 -5 -77 -10 -155 -10 -172 l0 -33
3420 0 3420 0 0 58 c0 59 -9 260 -35 822 -8 179 -24 543 -35 810 -33 791 -58
1301 -64 1307 -2 2 -26 -16 -52 -40 -130 -117 -296 -266 -454 -407 -96 -85
-220 -195 -275 -245 -55 -49 -138 -124 -185 -165 -47 -41 -87 -78 -90 -81 -3
-3 -151 -135 -330 -294 -413 -367 -684 -608 -690 -615 -3 -3 -43 -39 -90 -80
-47 -41 -89 -80 -95 -86 -5 -6 -113 -103 -240 -215 -126 -112 -249 -221 -272
-243 -23 -21 -52 -45 -63 -53 -19 -13 -20 -12 -20 19 0 129 33 565 43 574 7 6
75 67 152 135 77 68 142 126 145 129 3 3 43 39 90 80 47 41 87 77 90 80 13 14
313 282 373 333 37 32 67 63 67 68 0 5 -97 118 -216 252 -120 133 -282 315
-362 404 l-145 162 -101 -91 c-55 -50 -119 -108 -141 -128 -22 -20 -184 -165
-361 -322 l-321 -286 -284 15 c-156 8 -290 17 -298 19 -16 5 -18 3 129 134 47
41 105 93 130 116 63 57 242 218 395 354 72 63 155 138 185 166 30 27 111 99
179 160 68 60 142 125 165 146 l41 36 -31 34 c-16 18 -70 78 -120 133 -49 55
-91 102 -94 105 -7 7 -149 168 -185 210 -16 19 -55 62 -86 95 -31 33 -131 146
-224 250 -92 105 -184 208 -204 230 -20 22 -95 105 -166 185 -71 80 -132 147
-135 150 -3 3 -53 59 -111 125 -58 66 -121 137 -140 157 -19 20 -79 89 -134
152 -55 63 -102 115 -105 115 -3 0 -62 -50 -131 -112z"/>
<path d="M11880 3057 c0 -19 -50 -30 -255 -58 -82 -11 -175 -24 -205 -29 -30
-6 -89 -14 -130 -19 -147 -19 -378 -51 -471 -66 -111 -17 -377 -55 -434 -61
-79 -8 -149 -24 -157 -37 -6 -9 -8 -9 -8 1 0 6 -5 12 -11 12 -6 0 -8 -16 -4
-42 71 -518 67 -503 141 -539 37 -18 49 -19 106 -10 34 6 149 22 253 36 105
14 231 32 280 40 89 14 463 67 744 106 79 11 156 26 171 34 29 15 61 54 74 90
12 34 -63 546 -81 553 -7 2 -13 -3 -13 -11z m-535 -168 c-8 -37 14 -61 52 -57
43 5 43 -27 -1 -42 -19 -6 -40 -17 -46 -25 -29 -34 28 -133 70 -122 14 3 23 0
27 -9 9 -24 -7 -32 -74 -36 l-63 -4 -6 33 c-3 18 -7 54 -8 80 -2 47 -3 48 -34
47 -29 -2 -32 1 -32 27 0 24 4 29 25 29 24 0 25 2 19 43 -4 23 -7 46 -8 52 -1
10 63 24 77 17 5 -2 5 -17 2 -33z m455 -20 c0 -6 -5 -19 -10 -29 -7 -13 -6
-43 1 -95 10 -68 10 -78 -6 -95 -10 -11 -22 -20 -26 -20 -8 0 -19 59 -22 124
-1 22 -7 41 -13 43 -17 6 -65 -96 -58 -121 3 -15 -3 -29 -19 -44 l-24 -23 -19
72 c-19 73 -34 99 -59 99 -21 0 -25 -26 -14 -86 10 -52 9 -58 -12 -80 -12 -13
-25 -22 -27 -19 -9 9 -39 236 -32 240 4 2 26 7 49 11 41 7 44 5 92 -45 27 -28
49 -45 49 -38 0 23 39 96 57 106 24 14 93 14 93 0z m-594 -84 c4 -8 1 -22 -6
-30 -7 -8 -13 -47 -15 -87 -2 -61 -5 -74 -25 -90 -26 -21 -70 -24 -88 -5 -7 6
-18 12 -24 12 -21 0 -46 59 -53 126 l-6 67 41 4 42 4 -7 -31 c-12 -57 -6 -87
22 -116 15 -16 32 -29 37 -29 5 0 6 39 3 89 -5 79 -4 90 11 94 36 10 63 6 68
-8z m-265 -51 c19 -17 25 -45 12 -58 -4 -4 -6 -27 -4 -51 1 -25 0 -53 -4 -64
-8 -27 -52 -42 -115 -38 l-55 4 -7 39 c-10 59 -9 123 3 145 25 47 128 61 170
23z m-221 -27 c0 -13 -4 -27 -10 -33 -6 -6 -7 -31 -1 -69 39 -253 39 -266 -6
-283 -16 -6 -53 -12 -83 -14 l-55 -2 -9 37 c-5 20 -8 39 -5 41 2 2 21 7 42 11
34 7 39 5 44 -14 3 -12 13 -21 24 -21 17 0 19 8 19 60 l0 60 -42 2 c-24 1 -55
1 -70 0 -30 -2 -30 -4 -48 105 -16 93 2 118 96 132 99 14 104 14 104 -12z"/>
<path d="M4570 1695 l0 -605 140 0 140 0 0 175 c0 140 3 175 13 175 23 0 122
-112 150 -170 15 -31 30 -82 33 -117 l7 -63 143 0 143 0 -6 53 c-11 97 -79
222 -181 330 l-55 57 55 58 c104 110 165 222 184 341 l7 41 -145 0 -145 0 -7
-62 c-8 -84 -53 -171 -124 -242 -31 -31 -60 -56 -64 -56 -4 0 -8 155 -8 345
l0 345 -140 0 -140 0 0 -605z"/>
<path d="M5460 1695 l0 -605 140 0 140 0 2 318 3 317 45 3 c63 5 107 -6 130
-30 19 -21 20 -36 20 -315 l0 -293 139 0 c135 0 139 1 145 23 10 38 6 629 -5
677 -30 133 -124 180 -359 180 l-120 0 0 165 0 165 -140 0 -140 0 0 -605z"/>
<path d="M8961 2293 c1 -5 1 -79 0 -165 l-1 -158 -95 0 -95 0 0 -120 0 -120
95 0 95 0 1 -187 c1 -226 4 -256 24 -310 20 -51 80 -107 132 -123 21 -7 111
-15 201 -17 l162 -5 0 120 0 121 -43 6 c-24 4 -52 6 -63 5 -48 -5 -82 2 -102
20 -21 20 -22 29 -22 195 l0 175 115 0 115 0 0 120 0 120 -115 0 -115 0 0 165
0 165 -145 0 c-80 0 -144 -3 -144 -7z"/>
<path d="M9600 1695 l0 -605 140 0 140 0 0 605 0 605 -140 0 -140 0 0 -605z"/>
<path d="M2201 1923 c-52 -61 -116 -191 -136 -273 -11 -49 -15 -127 -15 -312
l0 -248 140 0 140 0 0 85 0 85 75 1 c41 1 82 2 90 2 8 0 20 -1 25 -2 6 0 10
-37 10 -86 l0 -85 146 0 146 0 -4 263 c-4 236 -7 269 -27 330 -26 80 -56 137
-118 225 l-44 62 -194 0 -193 0 -41 -47z m287 -274 c36 -72 60 -217 37 -225
-6 -3 -52 -4 -101 -2 l-89 3 3 55 c1 30 7 76 13 102 14 62 64 140 87 136 9 -2
32 -32 50 -69z"/>
<path d="M2940 1850 l0 -120 160 0 c102 0 160 -4 160 -10 0 -6 -72 -95 -160
-197 l-160 -188 0 -122 0 -123 304 0 304 0 6 33 c3 18 6 71 5 119 l-1 86 -35
7 c-20 3 -91 5 -159 4 -70 -1 -124 2 -123 7 0 7 104 137 144 180 15 16 98 113
140 163 l36 44 -2 100 c-1 55 -4 108 -6 118 -5 18 -22 19 -309 19 l-304 0 0
-120z"/>
<path d="M3670 1837 c0 -73 5 -160 11 -193 20 -112 121 -287 206 -360 l25 -21
1 -209 2 -209 140 0 140 0 3 203 2 202 51 63 c116 143 188 367 189 590 l0 67
-138 0 -139 0 -6 -162 c-9 -215 -28 -304 -82 -372 -14 -19 -15 -19 -35 -1 -50
45 -80 198 -80 406 l0 129 -145 0 -145 0 0 -133z"/>
<path d="M6494 1908 c-61 -82 -99 -160 -124 -250 -18 -64 -20 -102 -20 -320
l0 -248 145 0 145 0 0 84 0 85 95 3 95 3 0 -65 c0 -117 -9 -110 151 -110 l139
0 0 238 c0 165 -5 257 -14 304 -19 85 -71 196 -130 276 l-46 62 -195 0 -195 0
-46 -62z m276 -218 c33 -46 58 -127 62 -200 l3 -65 -99 -3 -99 -3 6 84 c6 86
15 115 54 180 28 45 45 47 73 7z"/>
<path d="M7445 1963 c-66 -15 -115 -37 -143 -66 -59 -61 -62 -83 -62 -463 l0
-344 139 0 140 0 3 295 c4 365 -9 338 168 344 l120 3 0 119 0 119 -172 -1
c-95 -1 -182 -3 -193 -6z"/>
<path d="M7942 1793 c4 -163 6 -184 31 -245 30 -79 85 -162 156 -240 l51 -56
0 -206 0 -206 140 0 140 0 0 205 0 205 39 43 c123 134 187 315 206 585 l7 92
-146 0 -146 0 0 -129 c0 -207 -30 -361 -80 -406 -23 -21 -35 -14 -61 37 -33
64 -49 161 -56 336 l-6 162 -140 0 -139 0 4 -177z"/>
<path d="M10172 1935 c-45 -50 -107 -161 -134 -235 -21 -61 -23 -84 -26 -337
l-3 -273 140 0 140 0 3 86 3 87 97 1 98 1 0 -87 0 -88 145 0 145 0 0 223 c0
339 -21 426 -143 590 l-51 67 -192 0 -192 0 -30 -35z m253 -241 c34 -46 57
-116 62 -196 l6 -78 -95 0 c-52 0 -97 2 -99 5 -3 2 -2 41 3 85 10 106 56 210
92 210 6 0 20 -12 31 -26z"/>
<path d="M11075 1956 c-68 -16 -104 -40 -140 -89 l-30 -42 -3 -367 -3 -368
140 0 141 0 0 285 c0 194 4 292 12 309 15 35 60 46 181 46 l97 0 0 120 0 120
-172 -1 c-99 0 -195 -6 -223 -13z"/>
</g>
</svg>
