<?xml version="1.0" encoding="iso-8859-1"?>
<!-- Generator: Adobe Illustrator 19.0.0, SVG Export Plug-In . SVG Version: 6.00 Build 0)  -->
<svg version="1.1" id="Layer_1" xmlns="http://www.w3.org/2000/svg" xmlns:xlink="http://www.w3.org/1999/xlink" x="0px" y="0px"
	 viewBox="0 0 512.001 512.001" style="enable-background:new 0 0 512.001 512.001;" xml:space="preserve">
<path style="fill:#C4CAD9;" d="M370.278,109.979H140.723c-5.399-6.3-3.798-15.598,2.5-21.297l83.084-77.584
	C234.704,3.899,245.203,0,256.001,0c10.798,0,21.297,3.899,29.694,11.098l83.085,77.584
	C375.076,94.381,375.676,103.679,370.278,109.979z"/>
<g>
	<path style="fill:#B8BFCC;" d="M370.278,109.979H256V0c10.798,0,21.297,3.899,29.694,11.098l83.085,77.584
		C375.076,94.381,375.676,103.679,370.278,109.979z"/>
	<path style="fill:#B8BFCC;" d="M416.842,130.031c-2.841-2.494-6.367-3.562-9.871-3.562v184.315l99.898-101.973
		c-0.015-0.015-0.029-0.029-0.044-0.044L416.842,130.031z"/>
</g>
<path style="fill:#C4CAD9;" d="M105.03,126.466c-3.511-0.002-7.039,1.068-9.871,3.564L5.176,208.765
	c-0.015,0.015-0.029,0.029-0.044,0.044l99.898,101.973V126.466z"/>
<path style="fill:#45C1F1;" d="M406.971,85.083H105.03c-8.289,0-14.997,6.708-14.997,14.997v324.687
	c0,8.289,6.708,15.997,14.997,15.997h301.942c8.289,0,14.997-7.708,14.997-15.997V100.08
	C421.968,91.79,415.261,85.083,406.971,85.083z"/>
<path style="fill:#44A4EC;" d="M406.971,85.083H256v355.681h150.971c8.289,0,14.997-7.708,14.997-15.997V100.08
	C421.968,91.79,415.261,85.083,406.971,85.083z"/>
<g>
	<path style="fill:#9AD2FF;" d="M345.983,175.065H166.018c-8.289,0-14.997-6.708-14.997-14.997s6.708-14.997,14.997-14.997h179.965
		c8.289,0,14.997,6.708,14.997,14.997S354.272,175.065,345.983,175.065z"/>
	<path style="fill:#9AD2FF;" d="M345.983,235.054H166.018c-8.289,0-14.997-6.708-14.997-14.997s6.708-14.997,14.997-14.997h179.965
		c8.289,0,14.997,6.708,14.997,14.997S354.272,235.054,345.983,235.054z"/>
</g>
<g>
	<path style="fill:#93BDF9;" d="M345.983,145.071H256v29.994h89.983c8.289,0,14.997-6.708,14.997-14.997
		S354.272,145.071,345.983,145.071z"/>
	<path style="fill:#93BDF9;" d="M345.983,205.059H256v29.994h89.983c8.289,0,14.997-6.708,14.997-14.997
		S354.272,205.059,345.983,205.059z"/>
</g>
<path style="fill:#D5DCEC;" d="M170.798,335.53L24.918,208.766C14.834,199.93,0.05,208.17,0.05,220.056v246.952
	c0,7.855,2.203,15.136,5.756,21.569l52.481-6.572l123.314-117.104L170.798,335.53z"/>
<path style="fill:#C9D0DF;" d="M487.083,208.766l-145.88,126.765l0.489,34.497l112.022,111.978l52.481,6.572
	c3.553-6.433,5.756-13.713,5.756-21.569V220.057C511.951,207.531,496.679,200.302,487.083,208.766z"/>
<path style="fill:#E6EEFF;" d="M285.629,286.036c-16.901-14.763-42.385-14.763-59.257,0
	C182.452,325.151,51.385,447.987,5.806,488.579c8.248,14.939,23.424,23.422,39.235,23.422H466.96
	c15.811,0,30.987-8.483,39.235-23.422C458.147,445.789,337.011,331.797,285.629,286.036z"/>
<path style="fill:#DAE2F2;" d="M256,274.965V512H466.96c15.81,0,30.986-8.483,39.235-23.422
	c-48.049-42.791-169.184-156.783-220.566-202.543C277.181,278.656,266.589,274.967,256,274.965z"/>
<g>
</g>
<g>
</g>
<g>
</g>
<g>
</g>
<g>
</g>
<g>
</g>
<g>
</g>
<g>
</g>
<g>
</g>
<g>
</g>
<g>
</g>
<g>
</g>
<g>
</g>
<g>
</g>
<g>
</g>
</svg>
