<svg version="1.1" xmlns="http://www.w3.org/2000/svg" xmlns:xlink="http://www.w3.org/1999/xlink" x="0px" y="0px"
	 viewBox="0 0 291.7 102.5" style="enable-background:new 0 0 291.7 102.5;" xml:space="preserve">
<g>
	<path fill="#FFB100" d="M72.3,76.7H29.9c-5,0-9-4-9-9s4-9,9-9h36.3c3,0,5.7-2.2,6.3-5.1l9.3-46.4h21c1.6,0,2.9,1.3,2.9,2.9
		s-1.3,2.9-2.9,2.9H86.6l-8.4,41.7c-1.1,5.7-6.2,9.9-12.1,9.9H29.9c-1.7,0-3.1,1.4-3.1,3.1s1.4,3.1,3.1,3.1h42.4
		c1.6,0,2.9,1.3,2.9,2.9S73.9,76.7,72.3,76.7z"/>
</g>
<g>
	<circle fill="#FFB100" cx="34.4" cy="87.3" r="8.1"/>
</g>
<g>
	<circle fill="#FFB100" cx="62.1" cy="87.3" r="8.1"/>
</g>
<g>
	<path fill="#FFB100" d="M76.5,52.5H27.2c-7.1,0-13.4-4.8-15.3-11.6l-6-21.6h76c1.4,0,2.5,1.1,2.5,2.5s-1.1,2.5-2.5,2.5H12.5l4.2,15.2
		c1.3,4.7,5.6,7.9,10.4,7.9h49.3c1.4,0,2.5,1.1,2.5,2.5C79,51.3,77.8,52.5,76.5,52.5z"/>
</g>
<g>
	<path fill="#FFB100" d="M69.8,30.9h-58c-0.7,0-1.3-0.6-1.3-1.3s0.6-1.3,1.3-1.3h58c0.7,0,1.3,0.6,1.3,1.3S70.5,30.9,69.8,30.9z"/>
</g>
<g>
	<path fill="#FFB100" d="M68.7,34.9H13.9v2.5h54.8c0.7,0,1.3-0.6,1.3-1.3S69.4,34.9,68.7,34.9z"/>
</g>
<g>
	<path fill="#FFB100" d="M67.2,41.4H15.5v2.5h51.8c0.7,0,1.3-0.6,1.3-1.3C68.5,42,67.9,41.4,67.2,41.4z"/>
</g>
<path fill="#2A2D2D" d="M132.1,43.1c-2.1,12-11.5,19.7-24.4,19.7H95.9l-6.6,31.7H77.1L92,21.8h12.2H115
	C125.7,21.8,134.1,31.8,132.1,43.1z M112.8,33.1H102l-4.3,18.2h11.8c5.2,0,9.4-4.1,10.3-9.2C121,37.1,117.8,33.1,112.8,33.1z"/>
<path fill="#2A2D2D" d="M136.7,42c2.4-12.3,12.8-21.9,26.6-21.9c14,0,21.8,11.9,19.5,24.4c-2.1,12.4-13.2,22.1-26,22.1
	C141.7,66.7,134.2,54.7,136.7,42z M171.5,43.3c1.4-7.5-3.2-12.1-9.6-12.1s-12.4,4.6-13.8,12.2c-1.3,7.6,3.1,12.2,9.5,12.2
	S170.3,51,171.5,43.3z"/>
<path fill="#2A2D2D" d="M208.7,66.7c-13.3,0-22-11.1-19.7-24.1c2.3-13.1,13-22.4,26.6-22.4c10.7,0,19.3,7.6,19.5,17.3h-11.9
	c-0.8-3.8-4.1-6.1-8.8-6.1c-6.8,0-12.7,4.9-13.9,12c-1.2,7,2.9,12.1,9.7,12.1c4.7,0,8.8-1.9,10.9-6.1h12
	C229.6,59.9,220,66.7,208.7,66.7z"/>
<path fill="#2A2D2D" d="M238.9,42c2.4-12.3,12.8-21.9,26.6-21.9c14,0,21.8,11.9,19.5,24.4c-2.1,12.4-13.2,22.1-26,22.1
	C243.9,66.7,236.5,54.7,238.9,42z M273.7,43.3c1.4-7.5-3.2-12.1-9.6-12.1s-12.4,4.6-13.8,12.2c-1.3,7.6,3.1,12.2,9.5,12.2
	C266.2,55.6,272.5,51,273.7,43.3z"/>
<g style="enable-background:new;">
	<path fill="#777777" d="M162.2,79.8c0.7,0.7,1.1,1.6,1.1,2.8c0,0.3,0,0.7-0.1,1.1l-1.7,9.5h-2.5l1.6-9.4c0.1-0.3,0.1-0.5,0.1-0.7
		c0-0.7-0.2-1.2-0.6-1.5c-0.4-0.3-0.9-0.5-1.5-0.5c-0.8,0-1.5,0.3-2.2,0.8c-0.7,0.5-1.2,1.4-1.4,2.6l-1.5,8.7h-2.5l1.6-9.4
		c0-0.2,0.1-0.4,0.1-0.7c0-0.7-0.2-1.2-0.6-1.5c-0.4-0.3-0.9-0.5-1.5-0.5c-0.8,0-1.5,0.3-2.2,0.8c-0.7,0.5-1.2,1.4-1.4,2.5l-1.5,8.8
		h-2.5l2.5-14.1h2.5l-0.2,1.4c1.1-1.2,2.4-1.7,3.9-1.7c0.7,0,1.3,0.2,1.9,0.6s1,0.9,1.3,1.6c1.2-1.4,2.7-2.1,4.5-2.1
		C160.6,78.8,161.5,79.1,162.2,79.8z"/>
	<path fill="#777777" d="M176.9,79.6c0.9,0.5,1.6,1.3,2.1,2.2s0.7,2,0.7,3.1c0,0.5,0,0.9-0.1,1.3c-0.1,0.5-0.2,0.9-0.3,1.1h-2.4h-9.2
		c0,1.3,0.4,2.3,1.1,3c0.7,0.7,1.7,1.1,3,1.1c0.9,0,1.7-0.2,2.5-0.6c0.7-0.4,1.3-0.9,1.7-1.5h2.6c-0.6,1.3-1.6,2.4-2.8,3.1
		c-1.2,0.8-2.7,1.2-4.3,1.2c-1.2,0-2.3-0.3-3.2-0.8c-0.9-0.5-1.7-1.3-2.2-2.2c-0.5-0.9-0.8-2-0.8-3.2c0-0.4,0-0.9,0.1-1.4
		c0.2-1.4,0.8-2.6,1.5-3.7s1.7-1.9,2.9-2.5c1.2-0.6,2.5-0.9,3.9-0.9C174.9,78.8,176,79,176.9,79.6z M177.3,85.1c0-1.3-0.3-2.3-1-3
		c-0.7-0.7-1.6-1-2.7-1c-1.4,0-2.5,0.4-3.5,1.1c-1,0.7-1.6,1.7-2,3H177.3z"/>
	<path fill="#777777" d="M197.7,79.1l-2.4,13.5c-0.4,2.2-1.3,3.9-2.8,5c-1.5,1.1-3.3,1.6-5.4,1.6c-1.1,0-2.1-0.2-3-0.6s-1.6-1-2.2-1.7
		c-0.5-0.8-0.8-1.6-0.8-2.6l0-0.4h2.4c-0.1,0.5,0.1,1,0.3,1.5c0.3,0.5,0.7,0.9,1.3,1.2c0.6,0.3,1.3,0.5,2.2,0.5
		c1.5,0,2.7-0.4,3.7-1.2c1-0.8,1.5-1.8,1.8-3.2l0.3-1.7c-0.7,0.8-1.5,1.4-2.5,1.8s-2,0.6-3.2,0.6c-1.2,0-2.2-0.3-3.1-0.8
		s-1.6-1.3-2.2-2.3c-0.5-1-0.8-2-0.8-3.2c0-0.5,0-0.9,0.1-1.3c0.3-1.4,0.8-2.7,1.6-3.7c0.8-1.1,1.7-1.9,2.9-2.5s2.3-0.8,3.5-0.8
		c1.2,0,2.2,0.3,3.2,0.8s1.6,1.3,2.1,2.2l0.5-2.7H197.7z M190.8,90.5c0.8-0.4,1.5-0.9,2.1-1.6c0.6-0.7,0.9-1.5,1.1-2.4L194,86
		c0-0.2,0.1-0.5,0.1-0.8c0-1.3-0.4-2.3-1.3-3c-0.8-0.7-1.9-1.1-3.1-1.1c-0.9,0-1.7,0.2-2.5,0.6c-0.8,0.4-1.5,0.9-2.1,1.7
		s-1,1.6-1.1,2.7c-0.1,0.3-0.1,0.6-0.1,0.9c0,1.2,0.4,2.2,1.2,3c0.8,0.8,1.8,1.2,3.1,1.2C189.1,91.1,190,90.9,190.8,90.5z"/>
	<path fill="#777777" d="M210.1,80c0.9,0.8,1.3,1.9,1.3,3.2c0,0.3,0,0.6-0.1,1l-1.6,9.1h-2.4l0.2-1.3c-1.1,1.1-2.5,1.7-4.2,1.7
		c-0.8,0-1.5-0.2-2.2-0.5c-0.7-0.3-1.2-0.8-1.6-1.4c-0.4-0.6-0.6-1.3-0.6-2.1c0-0.3,0-0.6,0.1-0.8c0.2-1.4,0.9-2.5,2-3.2
		s2.3-1.1,3.7-1.1c0.8,0,1.6,0.2,2.3,0.5c0.7,0.3,1.2,0.8,1.6,1.3l0.4-2.1c0-0.2,0.1-0.4,0.1-0.8c0-0.8-0.2-1.4-0.7-1.8
		c-0.5-0.4-1.1-0.6-1.9-0.6c-0.9,0-1.6,0.2-2.3,0.6c-0.6,0.4-1,1-1.2,1.8h-2.4c0.3-1.5,1-2.6,2.1-3.5c1.1-0.9,2.5-1.3,4.2-1.3
		C208.1,78.8,209.2,79.2,210.1,80z M206.9,90.7c0.8-0.5,1.1-1.2,1.1-2c0-0.6-0.3-1.1-0.9-1.5c-0.6-0.4-1.3-0.6-2.2-0.6
		c-1.1,0-1.9,0.2-2.5,0.6c-0.6,0.4-1,1-1.1,1.7c0,0.1,0,0.2,0,0.4c0,0.6,0.2,1.1,0.7,1.5c0.5,0.4,1.2,0.6,2.1,0.6
		C205.2,91.5,206.2,91.2,206.9,90.7z"/>
	<path fill="#777777" d="M229.3,83.4c0-0.2,0.1-0.4,0.1-0.5c0-0.6-0.2-1.1-0.7-1.4c-0.4-0.3-1-0.5-1.6-0.5c-0.8,0-1.5,0.2-2.1,0.5
		c-0.6,0.4-0.9,0.9-0.9,1.6c0,0.5,0.2,0.9,0.7,1.2c0.5,0.3,1.2,0.6,2.2,0.9c0.9,0.3,1.6,0.5,2.1,0.8c0.6,0.3,1,0.6,1.4,1.1
		c0.4,0.5,0.6,1.1,0.6,1.8c0,1.4-0.6,2.6-1.7,3.5c-1.1,0.9-2.6,1.3-4.3,1.3c-1.4,0-2.6-0.3-3.5-1s-1.3-1.6-1.3-2.7
		c0-0.3,0-0.6,0.1-0.9h2.4c0,0.2-0.1,0.4-0.1,0.5c0,0.6,0.2,1.1,0.7,1.4c0.5,0.3,1.1,0.4,1.9,0.4c0.9,0,1.6-0.2,2.2-0.5
		s1-0.8,1.1-1.4c0-0.1,0-0.2,0-0.3c0-0.5-0.2-0.9-0.7-1.2c-0.5-0.3-1.2-0.6-2.2-0.9c-0.9-0.3-1.6-0.5-2.1-0.8s-1-0.6-1.4-1.1
		s-0.6-1.1-0.6-1.8c0-1,0.3-1.8,0.8-2.5c0.5-0.7,1.2-1.2,2.1-1.6s1.8-0.6,2.9-0.6c1.3,0,2.4,0.3,3.3,1c0.9,0.7,1.3,1.6,1.3,2.7
		c0,0.2,0,0.5-0.1,0.8H229.3z"/>
	<path fill="#777777" d="M241.7,81.5H239l-2.1,11.7h-2.5l2.1-11.7h-2.8l0.4-2.4h2.8l0.8-4.5h2.5l-0.8,4.5h2.8L241.7,81.5z"/>
	<path fill="#777777" d="M245.1,92.8c-1-0.5-1.8-1.2-2.3-2.2c-0.6-0.9-0.8-2-0.8-3.3c0-0.4,0-0.9,0.1-1.4c0.3-1.5,0.8-2.7,1.7-3.8
		s1.9-1.9,3.1-2.5c1.2-0.6,2.5-0.9,3.8-0.9c1.2,0,2.2,0.3,3.2,0.8c0.9,0.5,1.7,1.2,2.3,2.2c0.6,0.9,0.8,2,0.8,3.2
		c0,0.4,0,0.9-0.1,1.4c-0.2,1.5-0.8,2.8-1.6,3.9c-0.9,1.1-1.9,1.9-3.1,2.5c-1.2,0.6-2.5,0.9-3.7,0.9C247.1,93.6,246,93.3,245.1,92.8
		z M251.1,90.6c0.8-0.4,1.6-1,2.2-1.7c0.6-0.8,1-1.7,1.2-2.8c0.1-0.4,0.1-0.7,0.1-1c0-1.2-0.4-2.2-1.2-2.9c-0.8-0.7-1.8-1-3-1
		c-0.9,0-1.7,0.2-2.5,0.6c-0.8,0.4-1.5,1-2.1,1.7c-0.6,0.8-1,1.7-1.2,2.7c-0.1,0.4-0.1,0.7-0.1,1c0,1.3,0.4,2.2,1.2,2.9
		s1.8,1.1,2.9,1.1C249.4,91.2,250.2,91,251.1,90.6z"/>
	<path fill="#777777" d="M267.8,78.9l-0.5,2.6c-1.2-0.1-2.2,0.3-3.2,1s-1.5,1.8-1.8,3.3l-1.3,7.5h-2.5l2.5-14.1h2.5l-0.3,1.9
		C264.3,79.5,265.8,78.8,267.8,78.9z"/>
	<path fill="#777777" d="M278.9,79.6c0.9,0.5,1.6,1.3,2.1,2.2c0.5,0.9,0.7,2,0.7,3.1c0,0.5,0,0.9-0.1,1.3c-0.1,0.5-0.2,0.9-0.3,1.1
		h-2.4h-9.2c0,1.3,0.4,2.3,1.1,3c0.7,0.7,1.7,1.1,3,1.1c0.9,0,1.7-0.2,2.5-0.6c0.7-0.4,1.3-0.9,1.7-1.5h2.6
		c-0.6,1.3-1.6,2.4-2.8,3.1c-1.2,0.8-2.7,1.2-4.3,1.2c-1.2,0-2.3-0.3-3.2-0.8c-0.9-0.5-1.7-1.3-2.2-2.2s-0.8-2-0.8-3.2
		c0-0.4,0-0.9,0.1-1.4c0.2-1.4,0.8-2.6,1.5-3.7c0.8-1.1,1.7-1.9,2.9-2.5c1.2-0.6,2.5-0.9,3.9-0.9C276.9,78.8,278,79,278.9,79.6z
		 M279.3,85.1c0-1.3-0.3-2.3-1-3c-0.7-0.7-1.6-1-2.7-1c-1.4,0-2.5,0.4-3.5,1.1c-1,0.7-1.6,1.7-2,3H279.3z"/>
</g>
</svg>
